<?xml version="1.0" encoding="UTF-8"?>
<svg width="20px" height="20px" viewBox="0 0 20 20" version="1.1" xmlns="http://www.w3.org/2000/svg" xmlns:xlink="http://www.w3.org/1999/xlink">
    <g stroke="none" stroke-width="1" fill="none" fill-rule="evenodd">
        <circle fill="#F76B64" opacity="0.895833333" cx="10" cy="10" r="10"></circle>
        <g transform="translate(4.750000, 3.466667)" stroke="#fff">
            <path d="M3.5,10.0333333 C3.5,10.9998316 4.28350169,11.7833333 5.25,11.7833333 L5.25,11.7833333 C6.21649831,11.7833333 7,10.9998316 7,10.0333333" id="路径" stroke-width="1.16666667"></path>
            <path d="M2.1840541,6.10731999 L2.1840541,5.89166667 L2.1840541,4.31666667 C2.1840541,2.5769697 3.48989025,1.16666667 5.10072077,1.16666667 C6.71155129,1.16666667 8.01738744,2.5769697 8.01738744,4.31666667 L8.01738744,6.12876433 C9.28357359,7.12528336 9.91666667,7.872673 9.91666667,8.37093326 C9.91666667,9.15882411 9.39433221,9.53759993 8.75,9.53759993 L1.16666667,9.53759993 C0.522334459,9.53759993 0,9.15125963 0,8.37093326 C0,7.87655508 0.728018034,7.12201733 2.1840541,6.10731999 Z" id="形状结合" stroke-width="1.169"></path>
            <path d="M5.9939676,0.885002712 C5.9939676,0.401753556 5.60221676,0.0100027119 5.1189676,0.0100027119 C4.63571845,0.0100027119 4.2439676,0.401753556 4.2439676,0.885002712" id="路径" stroke-width="0.583333333"></path>
        </g>
    </g>
</svg>