<?xml version="1.0" encoding="UTF-8"?>
<svg width="16px" height="16px" viewBox="0 0 16 16" version="1.1" xmlns="http://www.w3.org/2000/svg" xmlns:xlink="http://www.w3.org/1999/xlink">
    <!-- Generator: Sketch 60 (88103) - https://sketch.com -->
    <title>下载</title>
    <desc>Created with Sketch.</desc>
    <g stroke="none" stroke-width="1" fill="none" fill-rule="evenodd">
        <g transform="translate(0.682945, 0.654840)">
            <path d="M7.33333333,0 C7.70152317,-6.76353751e-17 8,0.298476833 8,0.666666667 L8,10 C8,10.3681898 7.70152317,10.6666667 7.33333333,10.6666667 C6.9651435,10.6666667 6.66666667,10.3681898 6.66666667,10 L6.66666667,0.666666667 C6.66666667,0.298476833 6.9651435,6.76353751e-17 7.33333333,0 Z" id="矩形" fill="#373C43"></path>
            <path d="M7.23141035,9.72630137 L11.5369512,5.56947448 C11.8018351,5.31373971 12.22388,5.32115655 12.4796147,5.58604045 C12.7353495,5.85092434 12.7279327,6.27296917 12.4630488,6.52870394 L7.68027357,11.1462814 C7.54822836,11.2737657 7.37712795,11.3358557 7.20704395,11.3332556 C7.03720937,11.330728 6.86805968,11.2635053 6.73991991,11.132096 L2.18936178,6.46542936 C1.93231224,6.20182114 1.9376291,5.77974464 2.20123731,5.52269511 C2.46484552,5.26564557 2.88692202,5.27096243 3.14397156,5.53457064 L7.23141035,9.72630137 Z" id="形状" fill="#373C43" fill-rule="nonzero"></path>
            <path d="M0,9.33333333 L0,12.6666667 C0,13.7712362 0.8954305,14.6666667 2,14.6666667 L12.6666667,14.6666667 C13.7712362,14.6666667 14.6666667,13.7712362 14.6666667,12.6666667 L14.6666667,9.33333333 C14.6666667,8.9651435 14.3681898,8.66666667 14,8.66666667 C13.6318102,8.66666667 13.3333333,8.9651435 13.3333333,9.33333333 L13.3333333,12.6666667 C13.3333333,13.0348565 13.0348565,13.3333333 12.6666667,13.3333333 L2,13.3333333 C1.63181017,13.3333333 1.33333333,13.0348565 1.33333333,12.6666667 L1.33333333,9.33333333 C1.33333333,8.9651435 1.0348565,8.66666667 0.666666667,8.66666667 C0.298476833,8.66666667 0,8.9651435 0,9.33333333 Z" id="路径-8" fill="#8D9399" fill-rule="nonzero"></path>
        </g>
    </g>
</svg>