<?xml version="1.0" encoding="UTF-8"?>
<svg viewBox="0 0 16 16" version="1.1" xmlns="http://www.w3.org/2000/svg" xmlns:xlink="http://www.w3.org/1999/xlink">
    <g stroke="none" stroke-width="1" fill="none" fill-rule="evenodd">
        <path d="M8.328,2.20066667 L8.40533333,2.09666667 C8.98866667,1.31 10.278,0.666666672 11.274,0.666666672
                            C13.0186667,0.666666672 14.4293397,2.09666667 14.4293397,3.856 C14.4311832,4.78292298 14.0308496,5.66506749
                            13.332,6.274 L6.67733333,13.2373333 C6.33425762,13.5963548 5.85925237,13.7993335 5.36266667,13.7993335
                            L3.28466667,13.7993335 C2.8023876,13.7995102 2.33980089,13.6080495 1.99871555,13.2670892 C1.65763022,12.9261289
                            1.466,12.4636124 1.466,11.9813333 L1.466,10.092 C1.466,9.62133333 1.64866667,9.16933333 1.97533333,8.83066667
                            L7.244,3.36 L8.328,2.2 L8.328,2.20066667 Z M8.93266667,3.50733333 L8.21466667,4.27466667 L8.208,4.282
                            L2.93533333,9.75533333 C2.84808769,9.84569314 2.79933333,9.96639468 2.79933333,10.092 L2.79933333,11.9813333
                            C2.79933333,12.2493333 3.01666666,12.466 3.28466667,12.466 L5.36266667,12.466 C5.4951434,12.466 5.62185697,12.4118236
                            5.71333333,12.316 L11.596,6.16066667 L8.93266667,3.50733333 L8.93266667,3.50733333 Z M13.096,3.856 C13.096,2.82933333
                            12.278,2 11.2733333,2 C10.8806667,2 10.3413333,2.20666667 9.93333333,2.48 L12.742,4.95533333 C12.972595,4.63523485
                            13.096249,4.25050758 13.0953333,3.856 L13.096,3.856 Z" fill="#646c73">
        </path>
        <path d="M2.12,14.02 L13.4533333,14.02 C13.8977778,14.02 14.12,14.2422222 14.12,14.6866667
                            L14.12,14.6866667 C14.12,15.1311111 13.8977778,15.3533333 13.4533333,15.3533333 L2.12,15.3533333
                            C1.67555555,15.3533333 1.45333333,15.1311111 1.45333333,14.6866667 L1.45333333,14.6866667
                            C1.45333333,14.2422222 1.67555555,14.02 2.12,14.02 Z" fill="#646c73">
        </path>
    </g>
</svg>
