<?xml version="1.0" encoding="UTF-8"?>
<svg viewBox="0 0 16 16" version="1.1" xmlns="http://www.w3.org/2000/svg" xmlns:xlink="http://www.w3.org/1999/xlink">
    <g stroke="none" stroke-width="1" fill="none" fill-rule="evenodd">
        <path d="M2,8.20933333 C2,8.945713 2.59695367,9.54266666 3.33333334,9.54266666
                                C4.069713,9.54266666 4.66666667,8.945713 4.66666667,8.20933333 C4.66666667,7.47295366
                                4.069713,6.87599999 3.33333334,6.87599999 C2.59695367,6.87599999 2,7.47295366 2,8.20933333 Z" fill="#373C43">
        </path>
        <path d="M6.41266667,8.20933333 C6.41266667,8.94571299 7.00962034,9.54266666
                                7.746,9.54266666 C8.48237966,9.54266666 9.07933333,8.94571299 9.07933333,8.20933333
                                C9.07933333,7.7329792 8.82520145,7.29280983 8.41266667,7.05463276 C8.0001319,6.81645569
                                7.4918681,6.81645569 7.07933332,7.05463276 C6.66679855,7.29280983 6.41266667,7.7329792
                                6.41266667,8.20933333 Z" fill="#8D9399">
        </path>
        <path d="M10.8253333,8.20933333 C10.8253333,8.945713 11.422287,9.54266666 12.1586667,9.54266666
                                C12.8950463,9.54266666 13.492,8.945713 13.492,8.20933333 C13.492,7.47295366 12.8950463,6.87599999
                                12.1586667,6.87599999 C11.422287,6.87599999 10.8253333,7.47295366 10.8253333,8.20933333 Z" fill="#373C43">
        </path>
    </g>
</svg>
