<?xml version="1.0" encoding="UTF-8"?>
<svg width="12px" height="12px" viewBox="0 0 16 16" version="1.1" xmlns="http://www.w3.org/2000/svg" xmlns:xlink="http://www.w3.org/1999/xlink">
    <!-- Generator: Sketch 60 (88103) - https://sketch.com -->
    <title>processing</title>
    <desc>Created with Sketch.</desc>
    <g id="框架" stroke="none" stroke-width="1" fill="none" fill-rule="evenodd">
        <g id="icon-切图" transform="translate(-751.000000, -204.000000)">
            <g id="编组-4" transform="translate(739.000000, 200.000000)">
                <g id="tag/status/processing">
                    <g id="编组-5">
                        <g id="icon/processing" transform="translate(12.000000, 4.000000)">
                            <rect id="Rectangle" fill-rule="nonzero" x="0" y="0" width="16" height="16"></rect>
                            <path d="M8,1.58333333 C11.5438271,1.58333333 14.4166667,4.45617286 14.4166667,8 C14.4166667,11.5438271 11.5438271,14.4166667 8,14.4166667 C4.45617286,14.4166667 1.58333333,11.5438271 1.58333333,8 C1.58333333,4.45617286 4.45617286,1.58333333 8,1.58333333 Z M8,2.75 C5.10050506,2.75 2.75,5.10050506 2.75,8 C2.75,10.8994949 5.10050506,13.25 8,13.25 C10.8994949,13.25 13.25,10.8994949 13.25,8 C13.25,5.10050506 10.8994949,2.75 8,2.75 Z M8.58333333,4.5 L8.58233333,7.41633333 L10.9166667,7.41666667 L10.9166667,8.58333333 L8.58233333,8.58233333 L8.58333333,8.58333333 L7.41666667,8.58333333 L7.41666667,4.5 L8.58333333,4.5 Z" id="Combined-Shape" fill="#0091FF"></path>
                        </g>
                    </g>
                </g>
            </g>
        </g>
    </g>
</svg>