<?xml version="1.0" encoding="UTF-8"?>
<svg width="13px" height="13px" viewBox="0 0 13 13" version="1.1" xmlns="http://www.w3.org/2000/svg" xmlns:xlink="http://www.w3.org/1999/xlink">
    <title>刷新</title>
    <g stroke="none" stroke-width="1" fill="none" fill-rule="evenodd">
        <path d="M11.8479361,2.77679858 C10.6427407,1.05143402 8.65875611,0 6.49683051,0 C2.91049884,0 0,2.87104388 0,6.41666667 C0,9.96228945 2.91049884,12.8333333 6.49683051,12.8333333 C9.52006076,12.8333333 12.1254049,10.7769081 12.8170821,7.90825019 C12.8925972,7.59505939 12.6999229,7.27995103 12.3867321,7.20443595 C12.0735413,7.12892088 11.758433,7.32159511 11.6829179,7.63478591 C11.1174565,9.97997731 8.98054135,11.6666667 6.49683051,11.6666667 C3.55129356,11.6666667 1.16666667,9.31436596 1.16666667,6.41666667 C1.16666667,3.51896737 3.55129356,1.16666667 6.49683051,1.16666667 C8.27464777,1.16666667 9.90287301,2.02956217 10.8914994,3.44488531 C11.0759865,3.70899802 11.4396484,3.77354737 11.7037611,3.58906032 C11.9678738,3.40457326 12.0324232,3.0409113 11.8479361,2.77679858 Z" fill="#373C43"></path>
        <path d="M11.1805556,2.88203368 L8.84722222,2.88203368 C8.52505612,2.88203368 8.26388889,3.14320091 8.26388889,3.46536701 C8.26388889,3.78753312 8.52505612,4.04870034 8.84722222,4.04870034 L12.3472222,4.04870034 L12.3472222,0.583333333 C12.3472222,0.261167229 12.086055,0 11.7638889,0 C11.4417228,0 11.1805556,0.261167229 11.1805556,0.583333333 L11.1805556,2.88203368 Z" fill="#8D9399"></path>
    </g>
</svg>