<?xml version="1.0" encoding="UTF-8"?>
<svg width="9px" height="8px" viewBox="0 0 9 8" version="1.1" xmlns="http://www.w3.org/2000/svg" xmlns:xlink="http://www.w3.org/1999/xlink">
    <title>设置</title>
    <g stroke="none" stroke-width="1" fill="none" fill-rule="evenodd" transform="translate(0.500000, 0.400000)">
        <path d="M0.190158254,3.21962468 L1.70565469,0.464862095 C1.86339428,0.178134189 2.16470363,0 2.49195685,0 L5.47373558,0 C5.79820689,0 6.09740932,0.175145173 6.25626334,0.45807102 L7.80420487,3.21502152 C7.95573433,3.48490202 7.95750278,3.81381715 7.80888408,4.08531142 L6.28625691,6.86682246 C6.12879497,7.15447143 5.82697706,7.33333333 5.49904994,7.33333333 L2.4934737,7.33333333 C2.16494036,7.33333333 1.86266559,7.15381558 1.70545597,6.86533805 L0.188442683,4.08163909 C0.0419448806,3.8128176 0.0425916056,3.48786093 0.190158254,3.21962468 Z M0.774268434,3.54096522 C0.736322725,3.60994026 0.736156424,3.69350054 0.773827287,3.76262607 L2.29084057,6.54632502 C2.3312659,6.62050496 2.4089937,6.66666667 2.4934737,6.66666667 L5.49904994,6.66666667 C5.58337406,6.66666667 5.66098438,6.62067361 5.70147459,6.54670673 L7.22410176,3.76519569 C7.26231799,3.69538288 7.26186325,3.6108047 7.22289853,3.54140686 L5.674957,0.784456358 C5.63410882,0.711703997 5.55717106,0.666666667 5.47373558,0.666666667 L2.49195685,0.666666667 C2.40780603,0.666666667 2.33032648,0.712472601 2.28976487,0.786202634 L0.774268434,3.54096522 Z" id="路径-10" fill="#373C43"></path>
        <path d="M3.97435897,5.31884058 C4.89483356,5.31884058 5.64102564,4.5726485 5.64102564,3.65217391 C5.64102564,2.73169933 4.89483356,1.98550725 3.97435897,1.98550725 C3.05388439,1.98550725 2.30769231,2.73169933 2.30769231,3.65217391 C2.30769231,4.5726485 3.05388439,5.31884058 3.97435897,5.31884058 Z M3.97435897,4.65217391 C3.42207422,4.65217391 2.97435897,4.20445866 2.97435897,3.65217391 C2.97435897,3.09988916 3.42207422,2.65217391 3.97435897,2.65217391 C4.52664372,2.65217391 4.97435897,3.09988916 4.97435897,3.65217391 C4.97435897,4.20445866 4.52664372,4.65217391 3.97435897,4.65217391 Z" id="椭圆形" fill="#8D9399"></path>
    </g>
</svg>